<svg version="1.1" id="Layer_1" xmlns="http://www.w3.org/2000/svg" xmlns:xlink="http://www.w3.org/1999/xlink" x="0px" y="0px"
	 width="100%" viewBox="0 0 500 500" enable-background="new 0 0 500 500" xml:space="preserve">
<path fill="#590197" opacity="1.000000" stroke="none" 
	d="
M501.000000,247.000000 
	C501.000000,257.020905 501.000000,267.041779 500.620483,277.613647 
	C499.835785,279.192749 499.181488,280.192871 499.062103,281.253174 
	C496.690765,302.321381 491.578156,322.729370 483.759216,342.398163 
	C467.647522,382.927734 442.809631,417.129791 408.914307,444.708069 
	C373.546021,473.484772 333.352295,491.250885 288.287720,498.122375 
	C284.793457,498.655182 281.426239,500.021210 278.000000,501.000000 
	C266.645782,501.000000 255.291550,501.000000 243.332520,500.684418 
	C241.472855,499.631104 240.289597,498.712250 238.952103,498.183533 
	C225.140656,492.723755 217.893158,481.387054 217.982010,465.254150 
	C218.055984,451.822235 226.454758,439.981995 239.321915,435.032990 
	C240.969589,434.399292 242.464890,433.369385 244.446533,432.496765 
	C245.961273,432.565155 247.060257,432.659821 248.243439,432.799896 
	C248.327606,432.845306 248.609436,432.850922 248.609436,432.850922 
	C248.609436,432.850922 248.862106,432.724548 249.317490,432.571655 
	C252.931458,432.305328 256.125000,432.451355 259.242371,432.031830 
	C270.626068,430.499756 281.984436,428.779114 293.743103,427.133667 
	C294.796722,427.080078 295.486450,427.121521 296.118622,426.950470 
	C348.778534,412.702179 387.704620,381.286682 413.032562,333.058685 
	C427.598083,305.323853 432.703003,275.392120 433.055267,244.051727 
	C433.550537,242.759888 433.855286,241.808853 434.176636,240.863464 
	C441.043945,220.661362 463.622803,211.491913 482.550476,221.264053 
	C491.535156,225.902756 496.560608,233.760056 500.143494,243.006180 
	C500.618439,243.031601 500.809235,243.015808 501.000000,243.000000 
	C501.000000,243.444443 501.000000,243.888901 500.822266,244.823166 
	C500.763031,245.875320 500.881531,246.437668 501.000000,247.000000 
z"/>
<path fill="#6900B2" opacity="1.000000" stroke="none" 
	d="
M244.030777,432.523010 
	C242.464890,433.369385 240.969589,434.399292 239.321915,435.032990 
	C226.454758,439.981995 218.055984,451.822235 217.982010,465.254150 
	C217.893158,481.387054 225.140656,492.723755 238.952103,498.183533 
	C240.289597,498.712250 241.472855,499.631104 242.863861,500.684418 
	C237.311966,501.000000 231.623917,501.000000 225.444916,500.603363 
	C218.667831,499.073730 212.363235,498.033997 206.098495,496.793121 
	C148.836334,485.450928 100.529480,458.399292 62.440388,413.957001 
	C26.942183,372.537720 6.934891,324.551941 2.917841,270.016022 
	C2.816318,268.637726 1.662860,267.336945 1.000001,266.000000 
	C1.000000,259.312347 1.000000,252.624710 1.340317,245.392273 
	C2.559103,243.102188 3.578703,241.412735 4.294511,239.603104 
	C12.719215,218.304520 37.234921,210.274033 55.112988,223.104645 
	C62.975555,228.747421 68.003151,236.373428 69.942810,246.424835 
	C71.684364,262.182404 71.950974,277.791962 75.274696,292.720856 
	C84.259232,333.076141 105.412758,366.415009 137.628220,392.373718 
	C168.624359,417.349854 204.193771,430.719635 244.030777,432.523010 
z"/>
<path fill="#590197" opacity="1.000000" stroke="none" 
	d="
M69.862114,245.966415 
	C68.003151,236.373428 62.975555,228.747421 55.112988,223.104645 
	C37.234921,210.274033 12.719215,218.304520 4.294511,239.603104 
	C3.578703,241.412735 2.559103,243.102188 1.340317,244.923737 
	C1.000000,241.969406 1.000000,238.938812 1.374884,235.348190 
	C2.159068,233.577209 2.774405,232.394455 2.944709,231.150772 
	C4.183044,222.107590 4.788926,212.942169 6.596464,204.018311 
	C18.767111,143.931580 48.624714,94.385429 96.513428,56.085793 
	C135.804749,24.662039 180.781525,7.067961 230.982727,2.919014 
	C232.365250,2.804753 233.662811,1.662755 235.000000,1.000000 
	C243.354233,1.000000 251.708450,1.000000 260.848602,1.215573 
	C262.913879,2.669336 263.981567,4.351610 265.504974,5.077775 
	C282.788300,13.316229 290.289398,32.090816 282.931824,49.534615 
	C278.230316,60.681263 269.200287,66.737198 257.442932,69.933380 
	C245.870483,70.681023 234.605728,70.465508 223.667755,72.251381 
	C186.847366,78.263123 154.358261,93.657753 127.186447,119.495140 
	C91.027420,153.878403 72.321449,196.262985 69.862114,245.966415 
z"/>
<path fill="#9438DD" opacity="1.000000" stroke="none" 
	d="
M257.900360,69.887283 
	C269.200287,66.737198 278.230316,60.681263 282.931824,49.534615 
	C290.289398,32.090816 282.788300,13.316229 265.504974,5.077775 
	C263.981567,4.351610 262.913879,2.669336 261.317261,1.215573 
	C262.066681,1.000000 263.133331,1.000000 264.440063,1.403183 
	C266.070221,2.192655 267.440918,2.813321 268.853302,2.930151 
	C290.846558,4.749387 312.571808,8.204062 333.218933,16.170464 
	C430.339569,53.643021 485.667175,124.084236 499.136475,227.366318 
	C499.302216,228.636932 500.359100,229.791351 501.000000,231.000000 
	C501.000000,232.714355 501.000000,234.428711 500.626587,236.721573 
	C500.121918,239.188385 499.990601,241.076675 499.859314,242.964981 
	C496.560608,233.760056 491.535156,225.902756 482.550476,221.264053 
	C463.622803,211.491913 441.043945,220.661362 434.176636,240.863464 
	C433.855286,241.808853 433.550537,242.759888 432.879700,243.925186 
	C432.521393,244.142090 432.161743,243.907867 432.189850,243.452545 
	C431.838165,238.359100 431.677948,233.690781 431.045319,229.087402 
	C422.908661,169.880707 392.864624,125.048264 341.811615,94.355865 
	C316.075836,78.883850 287.742126,71.628967 257.900360,69.887283 
z"/>
<path fill="#2D033B" opacity="1.000000" stroke="none" 
	d="
M234.531342,1.000000 
	C233.662811,1.662755 232.365250,2.804753 230.982727,2.919014 
	C180.781525,7.067961 135.804749,24.662039 96.513428,56.085793 
	C48.624714,94.385429 18.767111,143.931580 6.596464,204.018311 
	C4.788926,212.942169 4.183044,222.107590 2.944709,231.150772 
	C2.774405,232.394455 2.159068,233.577209 1.374884,234.894073 
	C1.000000,157.072952 1.000000,79.145912 1.000000,1.000000 
	C78.687424,1.000000 156.375061,1.000000 234.531342,1.000000 
z"/>
<path fill="#2D033B" opacity="1.000000" stroke="none" 
	d="
M501.000000,230.531342 
	C500.359100,229.791351 499.302216,228.636932 499.136475,227.366318 
	C485.667175,124.084236 430.339569,53.643021 333.218933,16.170464 
	C312.571808,8.204062 290.846558,4.749387 268.853302,2.930151 
	C267.440918,2.813321 266.070221,2.192655 264.840057,1.403183 
	C343.592773,1.000000 422.185547,1.000000 501.000000,1.000000 
	C501.000000,77.354088 501.000000,153.708389 501.000000,230.531342 
z"/>
<path fill="#2D033B" opacity="1.000000" stroke="none" 
	d="
M1.000001,266.468658 
	C1.662860,267.336945 2.816318,268.637726 2.917841,270.016022 
	C6.934891,324.551941 26.942183,372.537720 62.440388,413.957001 
	C100.529480,458.399292 148.836334,485.450928 206.098495,496.793121 
	C212.363235,498.033997 218.667831,499.073730 224.976959,500.603363 
	C150.404556,501.000000 75.809097,501.000000 1.000000,501.000000 
	C1.000000,422.979248 1.000000,344.958282 1.000001,266.468658 
z"/>
<path fill="#2D033B" opacity="1.000000" stroke="none" 
	d="
M278.468658,501.000000 
	C281.426239,500.021210 284.793457,498.655182 288.287720,498.122375 
	C333.352295,491.250885 373.546021,473.484772 408.914307,444.708069 
	C442.809631,417.129791 467.647522,382.927734 483.759216,342.398163 
	C491.578156,322.729370 496.690765,302.321381 499.062103,281.253174 
	C499.181488,280.192871 499.835785,279.192749 500.620483,278.082275 
	C501.000000,352.260376 501.000000,426.520721 501.000000,501.000000 
	C426.979248,501.000000 352.958282,501.000000 278.468658,501.000000 
z"/>
<path fill="#2D033B" opacity="1.000000" stroke="none" 
	d="
M500.143494,243.006180 
	C499.990601,241.076675 500.121918,239.188385 500.626587,237.150040 
	C501.000000,238.714355 501.000000,240.428711 501.000000,242.571533 
	C500.809235,243.015808 500.618439,243.031601 500.143494,243.006180 
z"/>
<path fill="#2D033B" opacity="1.000000" stroke="none" 
	d="
M501.000000,246.666672 
	C500.881531,246.437668 500.763031,245.875320 500.822266,245.156494 
	C501.000000,245.444443 501.000000,245.888901 501.000000,246.666672 
z"/>
<path fill="#F3F3F3" opacity="1.000000" stroke="none" 
	d="
M257.442932,69.933380 
	C287.742126,71.628967 316.075836,78.883850 341.811615,94.355865 
	C392.864624,125.048264 422.908661,169.880707 431.045319,229.087402 
	C431.677948,233.690781 431.838165,238.359100 432.118286,243.783203 
	C431.840424,245.641525 431.662201,246.713852 431.448761,247.997971 
	C430.666595,247.614212 430.133301,247.508942 429.839203,247.185898 
	C414.210663,230.019791 398.647980,212.793396 382.947449,195.693527 
	C380.301117,192.811356 377.068970,190.467072 373.894104,187.615067 
	C362.766724,165.472519 336.337433,161.694901 318.934082,176.901337 
	C299.387787,193.980225 278.957001,210.046921 258.907990,226.550308 
	C247.373688,236.044785 235.833405,245.531982 223.715225,255.500031 
	C222.310410,253.848801 221.206696,252.399033 219.948959,251.098160 
	C212.427094,243.318329 205.023117,235.415863 197.286041,227.854919 
	C187.300400,218.096649 175.254776,214.484085 161.954544,219.089783 
	C137.324722,227.618759 130.773193,256.489471 148.886810,275.329865 
	C161.232895,288.171326 173.624252,300.973816 186.225143,313.563782 
	C192.557449,319.890564 199.402145,325.704590 206.060120,332.105652 
	C206.592545,333.315704 206.940002,334.298889 207.588196,335.006561 
	C219.244583,347.732758 230.955154,360.409302 242.616791,373.130737 
	C252.482452,383.892975 262.203247,394.789764 272.173035,405.454163 
	C279.069916,412.831543 286.281403,419.914795 293.352325,427.129486 
	C281.984436,428.779114 270.626068,430.499756 259.242371,432.031830 
	C256.125000,432.451355 252.931458,432.305328 249.137360,432.476318 
	C248.501862,432.533813 248.159256,432.754486 248.159256,432.754486 
	C247.060257,432.659821 245.961273,432.565155 244.446533,432.496765 
	C204.193771,430.719635 168.624359,417.349854 137.628220,392.373718 
	C105.412758,366.415009 84.259232,333.076141 75.274696,292.720856 
	C71.950974,277.791962 71.684364,262.182404 69.942810,246.424835 
	C72.321449,196.262985 91.027420,153.878403 127.186447,119.495140 
	C154.358261,93.657753 186.847366,78.263123 223.667755,72.251381 
	C234.605728,70.465508 245.870483,70.681023 257.442932,69.933380 
z"/>
<path fill="#D7D7D7" opacity="1.000000" stroke="none" 
	d="
M293.743103,427.133667 
	C286.281403,419.914795 279.069916,412.831543 272.173035,405.454163 
	C262.203247,394.789764 252.482452,383.892975 242.616791,373.130737 
	C230.955154,360.409302 219.244583,347.732758 207.588196,335.006561 
	C206.940002,334.298889 206.592545,333.315704 206.445892,332.174438 
	C208.821304,332.608063 210.812622,333.502960 212.897659,334.019531 
	C226.028427,337.272949 236.802628,332.907013 246.927948,324.480560 
	C284.167267,293.489319 321.500488,262.605316 359.153687,232.119827 
	C373.828308,220.238678 380.136536,206.349731 374.107513,187.874252 
	C377.068970,190.467072 380.301117,192.811356 382.947449,195.693527 
	C398.647980,212.793396 414.210663,230.019791 429.839203,247.185898 
	C430.133301,247.508942 430.666595,247.614212 431.448761,247.997971 
	C431.662201,246.713852 431.840424,245.641525 432.090210,244.238525 
	C432.161743,243.907867 432.521393,244.142090 432.696960,244.268646 
	C432.703003,275.392120 427.598083,305.323853 413.032562,333.058685 
	C387.704620,381.286682 348.778534,412.702179 296.118622,426.950470 
	C295.486450,427.121521 294.796722,427.080078 293.743103,427.133667 
z"/>
<path fill="#6900B2" opacity="1.000000" stroke="none" 
	d="
M248.243439,432.799896 
	C248.159256,432.754486 248.501862,432.533813 248.681976,432.629181 
	C248.862106,432.724548 248.609436,432.850922 248.609436,432.850922 
	C248.609436,432.850922 248.327606,432.845306 248.243439,432.799896 
z"/>
<path fill="#9439DD" opacity="1.000000" stroke="none" 
	d="
M373.894104,187.615067 
	C380.136536,206.349731 373.828308,220.238678 359.153687,232.119827 
	C321.500488,262.605316 284.167267,293.489319 246.927948,324.480560 
	C236.802628,332.907013 226.028427,337.272949 212.897659,334.019531 
	C210.812622,333.502960 208.821304,332.608063 206.400894,331.819275 
	C199.402145,325.704590 192.557449,319.890564 186.225143,313.563782 
	C173.624252,300.973816 161.232895,288.171326 148.886810,275.329865 
	C130.773193,256.489471 137.324722,227.618759 161.954544,219.089783 
	C175.254776,214.484085 187.300400,218.096649 197.286041,227.854919 
	C205.023117,235.415863 212.427094,243.318329 219.948959,251.098160 
	C221.206696,252.399033 222.310410,253.848801 223.715225,255.500031 
	C235.833405,245.531982 247.373688,236.044785 258.907990,226.550308 
	C278.957001,210.046921 299.387787,193.980225 318.934082,176.901337 
	C336.337433,161.694901 362.766724,165.472519 373.894104,187.615067 
z"/>
</svg>